<svg xmlns:xlink="http://www.w3.org/1999/xlink" width="1.122ex" height="2.509ex" style="font-size: 15px; vertical-align: -0.671ex; margin-left: -0.027ex;" viewBox="-11.5 -791.3 483 1080.4" role="img" focusable="false" xmlns="http://www.w3.org/2000/svg">
<defs>
<path stroke-width="1" id="E1-MJMATHBI-6A" d="M321 616Q321 648 346 671T400 694Q425 694 440 680T456 640Q456 609 431 586T376 562Q353 562 337 577T321 616ZM297 360T297 373T294 392T288 400T278 401H276Q241 399 210 372T158 303Q151 287 148 285T129 282H123H116Q102 282 97 284T92 298Q96 331 153 391T279 451Q357 451 388 422T420 354V339L371 142Q363 111 353 71T339 13T329 -30T318 -64T308 -88T296 -109T283 -125T264 -142Q190 -202 88 -202Q44 -202 16 -181T-12 -125Q-12 -93 11 -68T68 -43Q92 -43 108 -58T124 -93Q124 -121 106 -144Q101 -150 103 -150Q120 -150 147 -128T191 -64Q194 -57 242 136T294 345Q297 360 297 373Z"></path>
</defs>
<g stroke="currentColor" fill="currentColor" stroke-width="0" transform="matrix(1 0 0 -1 0 0)">
 <use xlink:href="#E1-MJMATHBI-6A" x="0" y="0"></use>
</g>
</svg>